<?xml version="1.0" encoding="UTF-8"?>
<svg version="1.1" xmlns="http://www.w3.org/2000/svg" width="1695" height="650">
<path d="M0 0 C559.35 0 1118.7 0 1695 0 C1695 214.5 1695 429 1695 650 C1135.65 650 576.3 650 0 650 C0 435.5 0 221 0 0 Z " fill="#FEFEFE" transform="translate(0,0)"/>
<path d="M0 0 C1.09248047 0.1848999 1.09248047 0.1848999 2.20703125 0.37353516 C21.30573954 3.73199445 40.19663244 11.78771114 57.17431641 21.01123047 C59.05707525 22.03091131 60.95518897 23.01732329 62.85546875 24.00390625 C80.1392672 33.15654589 95.14517651 45.28162707 109 59 C109.60158936 59.58910156 110.20317871 60.17820313 110.82299805 60.78515625 C115.98189644 65.87451658 120.48696622 71.3326424 125 77 C125.76054687 77.90878906 126.52109375 78.81757812 127.3046875 79.75390625 C156.8088625 116.07789875 171.48166039 162.99078129 171.375 209.3125 C171.3737915 210.28387909 171.37258301 211.25525818 171.37133789 212.256073 C171.2160175 258.34503237 157.34582841 304.60655729 128.35473633 341.05224609 C122.99134185 347.83993467 118.14439292 354.9559759 113.3125 362.125 C112.89711975 362.74098053 112.4817395 363.35696106 112.05377197 363.99160767 C109.36085621 367.9888572 106.6787802 371.99326662 104 376 C103.04168769 377.42970159 102.0833585 378.85939187 101.125 380.2890625 C98.74073965 383.85324357 96.37002763 387.42634578 94 391 C82.4869386 408.34865498 70.85583721 425.61651572 59.20385742 442.87207031 C53.10986963 451.89767786 47.02840503 460.9304249 41 470 C39.81725892 471.77420816 38.63384003 473.54796323 37.45043945 475.32173157 C33.94040613 480.58317687 30.43541015 485.84791051 26.93847656 491.11807251 C25.09213989 493.90014905 23.24391257 496.68096711 21.39550781 499.46166992 C20.46434394 500.86346578 19.53400654 502.26581099 18.60449219 503.66870117 C13.69556321 511.07595508 8.74742206 518.44761908 3.59375 525.6875 C3.19696045 526.24631363 2.8001709 526.80512726 2.39135742 527.38087463 C-6.8204796 540.21285127 -16.97771242 550.13463852 -33 553 C-47.55958171 554.51462072 -59.26958127 552.27375086 -71.234375 543.48828125 C-78.7822286 536.69734517 -84.3810425 528.79556911 -89.875 520.3125 C-91.28342352 518.16813177 -92.6935712 516.02489495 -94.10546875 513.8828125 C-94.77755371 512.86219727 -95.44963867 511.84158203 -96.14208984 510.79003906 C-98.42005378 507.36920176 -100.77289163 504.01277513 -103.1875 500.6875 C-106.96356425 495.47413583 -110.62692485 490.19580307 -114.25 484.875 C-118.74328713 478.27769759 -123.28450373 471.71752448 -127.875 465.1875 C-134.70810925 455.4582322 -141.41045004 445.64281753 -148.09130859 435.80859375 C-160.66030699 417.31361325 -173.29067453 398.8642955 -186.07763672 380.51928711 C-189.63506063 375.41266247 -193.17358997 370.29449707 -196.67944336 365.15234375 C-201.30935751 358.36561699 -206.14068617 351.83454876 -211.26757812 345.41210938 C-220.09974707 334.2705555 -227.20781043 322.47782735 -234 310 C-239.69182193 310.61382393 -244.52179531 312.68480614 -249.75 314.875 C-256.41687791 317.6579628 -263.03312935 320.07922725 -270 322 C-270.93682617 322.27505371 -271.87365234 322.55010742 -272.83886719 322.83349609 C-280.29499381 324.89648023 -287.28069157 325.51833565 -295 325.5 C-296.08539063 325.52835937 -297.17078125 325.55671875 -298.2890625 325.5859375 C-308.85229796 325.61114809 -318.62190199 322.48240453 -326.30859375 314.98828125 C-332.38121983 307.84979008 -333.90557098 300.9924675 -333.53125 291.671875 C-331.59350465 278.27863505 -320.19587229 267.97008832 -309.86743164 260.13867188 C-295.00567974 249.27834757 -278.85660873 240.35372793 -262 233 C-261.67 233.66 -261.34 234.32 -261 235 C-262.02738281 235.61746094 -263.05476563 236.23492187 -264.11328125 236.87109375 C-272.6449142 242.06129949 -280.4338249 247.46211379 -288 254 C-288.66515625 254.50917969 -289.3303125 255.01835937 -290.015625 255.54296875 C-295.65750882 259.92156119 -298.83977895 265.67955791 -302 272 C-302.39567146 276.11498317 -302.26788111 278.47454089 -300.375 282.1875 C-294.68528569 288.92531958 -288.37227557 290.42613653 -279.91796875 291.1875 C-268.30043904 291.542912 -256.40180825 288.94139219 -245 287 C-245.19634033 286.35675781 -245.39268066 285.71351563 -245.5949707 285.05078125 C-251.25322148 266.40166555 -256.1001956 248.2424516 -256.203125 228.63671875 C-256.20882507 227.76465286 -256.21452515 226.89258698 -256.22039795 225.99409485 C-256.22978786 224.15452258 -256.23635781 222.31493395 -256.24023438 220.4753418 C-256.24984205 217.73258978 -256.28088247 214.99062063 -256.3125 212.24804688 C-256.41162074 195.66569697 -254.31566623 179.81945935 -250.01171875 163.8046875 C-249.36782717 161.38325738 -248.76184764 158.9511911 -248.20703125 156.5078125 C-241.51229046 127.27725413 -230.80215806 102.47405515 -212 79 C-211.5678418 78.45214844 -211.13568359 77.90429688 -210.69042969 77.33984375 C-171.6253812 28.0773349 -120.36489563 8.32762211 -60 -2 C-58.87851562 -2.20496094 -57.75703125 -2.40992188 -56.6015625 -2.62109375 C-37.89131726 -4.58952519 -18.46158856 -3.29514487 0 0 Z " fill="#5FCDFC" transform="translate(381,45)"/>
<path d="M0 0 C2.41606396 1.89295977 4.72057486 3.8562911 7.0078125 5.90234375 C8.24724609 6.96388672 8.24724609 6.96388672 9.51171875 8.046875 C28.54368569 24.63810114 41.2408522 45.47793664 49.3828125 69.21484375 C49.62177246 69.90707031 49.86073242 70.59929687 50.10693359 71.3125 C53.93477155 83.10922581 54.4473928 95.04332953 54.4453125 107.33984375 C54.44671234 108.13304016 54.44811218 108.92623657 54.44955444 109.74346924 C54.43077613 122.70834429 53.18223859 134.55100335 49.0078125 146.90234375 C48.77304199 147.62647461 48.53827148 148.35060547 48.29638672 149.09667969 C44.65613103 160.25402522 44.65613103 160.25402522 43.0078125 161.90234375 C41.13314912 161.9784293 39.25808499 162.04918147 37.38232422 162.09008789 C28.15300714 162.33860699 20.73360341 163.27928742 13.8515625 170.01171875 C12.14515444 171.92127063 10.54291957 173.85383995 9.0078125 175.90234375 C7.9765625 175.57234375 6.9453125 175.24234375 5.8828125 174.90234375 C-1.07554863 173.22146078 -8.93595221 172.32169046 -15.71875 174.96484375 C-21.16270467 178.3149697 -24.25129997 182.1713971 -26.9921875 187.90234375 C-27.6521875 191.53234375 -28.3121875 195.16234375 -28.9921875 198.90234375 C-13.8121875 198.90234375 1.3678125 198.90234375 17.0078125 198.90234375 C8.25281525 216.41233824 -17.08229819 227.02442156 -34.3046875 233.58984375 C-35.03856689 233.87561279 -35.77244629 234.16138184 -36.52856445 234.45581055 C-48.9704883 239.03417023 -61.23504983 240.3855045 -74.36328125 240.23852539 C-76.62275707 240.21478523 -78.88105436 240.2180153 -81.140625 240.22460938 C-118.32104354 240.15217686 -149.52515173 224.29569966 -175.48046875 198.421875 C-180.38926193 193.25351888 -184.58444684 187.87293997 -188.5546875 181.96484375 C-189.19954102 181.00650635 -189.19954102 181.00650635 -189.85742188 180.02880859 C-191.82709337 177.00944632 -193.24870025 174.42158058 -193.9921875 170.90234375 C-180.71539526 161.15527901 -167.40682683 151.45905031 -153.9921875 141.90234375 C-158.76428508 143.49304294 -163.20922828 145.79522841 -167.7421875 147.96484375 C-168.7731958 148.45710449 -169.8042041 148.94936523 -170.86645508 149.45654297 C-178.07140568 152.91991029 -185.13973701 156.56293181 -192.12890625 160.44140625 C-194.52550062 161.6642252 -196.40872598 162.32254558 -198.9921875 162.90234375 C-209.44900563 139.1101452 -210.44820371 117.6672594 -209.9921875 91.90234375 C-190.1921875 91.90234375 -170.3921875 91.90234375 -149.9921875 91.90234375 C-153.05831697 79.63782587 -154.76567686 74.34903526 -164.9921875 67.90234375 C-172.73053847 65.32289343 -181.28799362 66.84789205 -188.9921875 68.90234375 C-189.45109375 68.35964844 -189.91 67.81695312 -190.3828125 67.2578125 C-190.99640625 66.54238281 -191.61 65.82695312 -192.2421875 65.08984375 C-192.84546875 64.38214844 -193.44875 63.67445313 -194.0703125 62.9453125 C-195.91589148 60.98344704 -197.79164082 59.4456475 -199.9921875 57.90234375 C-199.44092236 52.55674239 -197.61713241 48.56394315 -195.1171875 43.90234375 C-194.71790039 43.15758789 -194.31861328 42.41283203 -193.90722656 41.64550781 C-177.83854644 12.59303681 -148.57030826 -9.49955948 -116.9921875 -19.09765625 C-111.69858551 -20.60313234 -106.3646468 -21.90309574 -100.9921875 -23.09765625 C-100.23953613 -23.27345215 -99.48688477 -23.44924805 -98.71142578 -23.63037109 C-64.46272174 -29.51581009 -28.12021547 -19.7135192 0 0 Z " fill="#FDCE26" transform="translate(415.9921875,137.09765625)"/>
<path d="M0 0 C3.45562815 1.49275382 6.45539418 3.19836329 9 6 C9 10.79990705 7.31600446 12.83852093 4.5625 16.5 C4.10584961 17.12382568 3.64919922 17.74765137 3.17871094 18.39038086 C1.090495 21.23291596 -1.03436038 24.04497077 -3.17578125 26.84765625 C-10.00758142 35.78946626 -16.17379425 45.13656502 -22.36767578 54.52734375 C-24.52577511 57.79644784 -26.69915452 61.05519377 -28.875 64.3125 C-31.63838808 68.45420251 -34.39791264 72.59842817 -37.15234375 76.74609375 C-47.62698998 92.50424506 -58.20710285 108.19063622 -68.79614258 123.87207031 C-74.89013037 132.89767786 -80.97159497 141.9304249 -87 151 C-88.18274108 152.77420816 -89.36615997 154.54796323 -90.54956055 156.32173157 C-94.05959387 161.58317687 -97.56458985 166.84791051 -101.06152344 172.11807251 C-102.90786011 174.90014905 -104.75608743 177.68096711 -106.60449219 180.46166992 C-107.53565606 181.86346578 -108.46599346 183.26581099 -109.39550781 184.66870117 C-114.30443679 192.07595508 -119.25257794 199.44761908 -124.40625 206.6875 C-124.80303955 207.24631363 -125.1998291 207.80512726 -125.60864258 208.38087463 C-134.8204796 221.21285127 -144.97771242 231.13463852 -161 234 C-175.55958171 235.51462072 -187.26958127 233.27375086 -199.234375 224.48828125 C-206.7822286 217.69734517 -212.3810425 209.79556911 -217.875 201.3125 C-219.28342352 199.16813177 -220.6935712 197.02489495 -222.10546875 194.8828125 C-222.77755371 193.86219727 -223.44963867 192.84158203 -224.14208984 191.79003906 C-226.42005378 188.36920176 -228.77289163 185.01277513 -231.1875 181.6875 C-234.96356425 176.47413583 -238.62692485 171.19580307 -242.25 165.875 C-246.74328713 159.27769759 -251.28450373 152.71752448 -255.875 146.1875 C-262.70810925 136.4582322 -269.41045004 126.64281753 -276.09130859 116.80859375 C-288.66030699 98.31361325 -301.29067453 79.8642955 -314.07763672 61.51928711 C-318.55178318 55.09672203 -322.98519541 48.64801435 -327.38818359 42.17651367 C-330.31218773 37.91022336 -333.40248326 33.83583904 -336.7578125 29.89453125 C-338.24391203 27.6279958 -338.62280832 25.66334126 -339 23 C-315.98447537 2.56197154 -315.98447537 2.56197154 -306.44140625 2.73046875 C-301.67010198 3.25722074 -297.77646679 5.0413843 -294.52612305 8.625 C-290.53782113 14.00721029 -287.22616273 19.63512205 -284 25.5 C-278.5809706 35.23830287 -273.01279426 44.87705198 -267.31835938 54.45703125 C-266.75310547 55.41609375 -266.18785156 56.37515625 -265.60546875 57.36328125 C-265.10168701 58.21188721 -264.59790527 59.06049316 -264.07885742 59.93481445 C-263 62 -263 62 -263 64 C-262.19892822 63.72736328 -261.39785645 63.45472656 -260.57250977 63.17382812 C-257.56235451 62.15660474 -254.54841119 61.15175812 -251.53149414 60.15478516 C-250.2333312 59.7230836 -248.93672677 59.28666279 -247.6418457 58.84521484 C-238.8584744 55.85527525 -231.55894309 53.46649846 -222.375 56 C-216.51643923 59.47173971 -212.04710448 64.90579105 -209 71 C-209 71.66 -209 72.32 -209 73 C-204.2258362 70.39100345 -200.01741317 67.59178061 -195.75 64.1875 C-177.51385206 49.99095508 -177.51385206 49.99095508 -168 51 C-161.49016497 52.55556299 -156.44940236 57.79367048 -151.56713867 62.11425781 C-148.85151955 64.511528 -146.36855312 66.61006303 -143 68 C-137.59490749 63.15694145 -132.21580608 58.28871141 -126.875 53.375 C-122.96078611 49.77636883 -119.01722062 46.22005958 -114.98828125 42.75 C-113.50355546 41.44320795 -112.04688466 40.10441365 -110.60546875 38.75 C-97.93682064 26.91814431 -97.93682064 26.91814431 -88.5625 26.3125 C-80.50677241 26.76932549 -75.2260036 31.15402611 -69.1796875 36.10546875 C-68.5103418 36.65235352 -67.84099609 37.19923828 -67.15136719 37.76269531 C-65.81392452 38.86809973 -64.48862636 39.98838585 -63.17675781 41.12402344 C-62.56413086 41.63868164 -61.95150391 42.15333984 -61.3203125 42.68359375 C-60.77648926 43.15337646 -60.23266602 43.62315918 -59.67236328 44.10717773 C-58.01108175 45.19194324 -58.01108175 45.19194324 -55.9453125 44.80444336 C-52.75605277 43.4855916 -50.96979357 40.76009658 -48.875 38.125 C-47.89763845 36.93081202 -46.91843689 35.73812785 -45.9375 34.546875 C-45.44636719 33.94810547 -44.95523437 33.34933594 -44.44921875 32.73242188 C-42.3363027 30.20660444 -40.11061492 27.79225863 -37.875 25.375 C-34.55492362 21.77124621 -31.42563611 18.08418991 -28.375 14.25 C-20.30096241 4.26105792 -13.39366045 -1.93965619 0 0 Z " fill="#006B6E" transform="translate(509,364)"/>
<path d="M0 0 C0.79148437 0.36222656 1.58296875 0.72445313 2.3984375 1.09765625 C15.1627526 7.52337801 23.39323147 18.34280632 28.22265625 31.62890625 C28.47917969 32.41136719 28.73570312 33.19382812 29 34 C29.33837891 35.00353516 29.33837891 35.00353516 29.68359375 36.02734375 C33.83325783 50.93751608 31.17575111 68.39820294 24.1875 82 C17.05312199 93.88469953 7.22335566 101.73509274 -6 106 C-6.68191406 106.22558594 -7.36382813 106.45117188 -8.06640625 106.68359375 C-19.67321898 109.87711907 -33.17687795 109.20150891 -43.79296875 103.5 C-50.34343003 99.65656997 -50.34343003 99.65656997 -52 98 C-52.33 113.51 -52.66 129.02 -53 145 C-65.54 145 -78.08 145 -91 145 C-91 96.16 -91 47.32 -91 -3 C-79.12 -3 -67.24 -3 -55 -3 C-52.95301586 -0.95301586 -53.29954307 3.30411241 -53 6 C-52.55011719 5.61328125 -52.10023438 5.2265625 -51.63671875 4.828125 C-37.56806752 -6.56212569 -16.25774914 -7.87081506 0 0 Z " fill="#010101" transform="translate(983,286)"/>
<path d="M0 0 C13.2 0 26.4 0 40 0 C50.17935915 22.37879068 60.2737312 44.78891663 70.125 67.31420898 C75.99393804 80.73080883 81.9221857 94.12041242 87.875 107.5 C88.30610077 108.46902252 88.73720154 109.43804504 89.18136597 110.43643188 C91.11870124 114.79063534 93.05669837 119.14454313 94.99560547 123.49804688 C95.32365173 124.23853271 95.651698 124.97901855 95.98968506 125.74194336 C96.69722084 127.32328776 97.41689689 128.89923032 98.14556885 130.47094727 C98.69637115 131.66965454 98.69637115 131.66965454 99.25830078 132.89257812 C99.75923752 133.96771667 99.75923752 133.96771667 100.27029419 135.0645752 C101 137 101 137 101 140 C87.47 140 73.94 140 60 140 C56.10595037 131.43309081 52.49493339 122.73733347 49 114 C19.795 113.505 19.795 113.505 -10 113 C-10.99 115.97 -11.98 118.94 -13 122 C-13.57613597 123.5286071 -14.16717148 125.05192929 -14.7890625 126.5625 C-15.09070312 127.29597656 -15.39234375 128.02945313 -15.703125 128.78515625 C-16.00734375 129.51605469 -16.3115625 130.24695313 -16.625 131 C-16.93695312 131.76183594 -17.24890625 132.52367187 -17.5703125 133.30859375 C-19.87036949 138.87036949 -19.87036949 138.87036949 -21 140 C-23.95705321 140.08868299 -26.89065056 140.11520296 -29.84765625 140.09765625 C-31.17729652 140.09553383 -31.17729652 140.09553383 -32.53379822 140.09336853 C-35.37673254 140.08775215 -38.21958931 140.07519691 -41.0625 140.0625 C-42.98502491 140.05748711 -44.90755104 140.05292384 -46.83007812 140.04882812 C-51.55341549 140.03777741 -56.27669458 140.02050183 -61 140 C-59.07772861 133.90126107 -56.8346542 128.05892158 -54.21875 122.2265625 C-53.85322021 121.40243866 -53.48769043 120.57831482 -53.11108398 119.72921753 C-51.91117229 117.0261125 -50.70555754 114.32559114 -49.5 111.625 C-48.64734835 109.70657487 -47.795143 107.78795132 -46.94335938 105.86914062 C-45.17490245 101.88627453 -43.40453574 97.9042657 -41.6328125 93.92285156 C-37.96178874 85.66944479 -34.31420887 77.40570333 -30.66644287 69.14199829 C-28.71892345 64.73085813 -26.76946794 60.32057368 -24.8203125 55.91015625 C-21.87094367 49.23576619 -18.92279132 42.56084013 -15.97564697 35.88546753 C-14.20300306 31.87047724 -12.43000714 27.85564245 -10.65698242 23.84082031 C-9.80703338 21.91593097 -8.95725927 19.99096437 -8.10766602 18.06591797 C-6.93419099 15.40703447 -5.7601288 12.74841099 -4.5859375 10.08984375 C-4.23586639 9.29621933 -3.88579529 8.50259491 -3.52511597 7.68492126 C-1.11386608 2.22773215 -1.11386608 2.22773215 0 0 Z " fill="#010101" transform="translate(1489,252)"/>
<path d="M0 0 C36.63 0 73.26 0 111 0 C111 10.23 111 20.46 111 31 C87.57 31 64.14 31 40 31 C40 38.59 40 46.18 40 54 C60.46 54 80.92 54 102 54 C102 63.9 102 73.8 102 84 C81.54 84 61.08 84 40 84 C40 92.25 40 100.5 40 109 C64.09 109 88.18 109 113 109 C113 119.23 113 129.46 113 140 C75.71 140 38.42 140 0 140 C0 93.8 0 47.6 0 0 Z " fill="#010101" transform="translate(636,252)"/>
<path d="M0 0 C9.63790707 7.83539773 16.20060448 19.28660057 18.796875 31.4140625 C20.22102962 48.59946251 19.06895769 64.05725158 7.9375 77.9921875 C-3.32653305 90.7361665 -18.37363543 98.25864611 -35.40283203 99.58544922 C-54.14451507 100.6865182 -71.31929379 96.92132885 -86.078125 84.6015625 C-96.16743723 74.95573652 -102.84549143 62.0804577 -103.44140625 48.0078125 C-103.82681036 30.41921323 -100.33084899 16.98173171 -88.140625 3.7265625 C-64.45547548 -18.67396874 -25.85937881 -18.61508475 0 0 Z " fill="#010101" transform="translate(1190.203125,294.5859375)"/>
<path d="M0 0 C3.12690524 0.73419693 6.13798425 1.74326903 9.17578125 2.78125 C10.05089355 3.07066467 10.92600586 3.36007935 11.82763672 3.65826416 C14.65904144 4.5964126 17.48562541 5.548299 20.3125 6.5 C23.22916835 7.46921628 26.14710591 8.43453365 29.06523132 9.39935303 C30.99715754 10.03812681 32.92872895 10.67797471 34.85993958 11.31890869 C45.45068624 14.82829694 56.10489606 18.11788618 66.79541016 21.31054688 C68.588837 21.87141481 70.3532875 22.52429251 72.10546875 23.203125 C82.18098155 25.97695039 89.11372515 21.9008649 97.8125 17.0625 C99.63419537 16.06930831 101.45862675 15.08147873 103.2853241 14.09751892 C104.93211977 13.20740335 106.57139658 12.30341829 108.21020508 11.39868164 C114.59521567 8.19751548 121.40211131 8.29042258 128.3125 9.75 C132.08914197 11.03021762 133.8388584 11.66824003 136 15 C137.22500085 21.00250416 134.78765089 25.32635079 131.796875 30.375 C126.04943364 38.77126216 116.91440872 43.26951926 108.33984375 48.3515625 C107.60813965 48.80442627 106.87643555 49.25729004 106.12255859 49.72387695 C104 51 104 51 102.00634766 51.95385742 C98.66963115 53.76694498 97.285747 55.25111035 95.91381836 58.84667969 C94.95997098 62.56285853 94.20350273 66.29346096 93.5 70.0625 C93.0761508 72.15563439 92.64210292 74.24650127 92.20782471 76.3374939 C91.91183442 77.76668373 91.61917546 79.19656735 91.32977295 80.62710571 C89.86903507 87.81302656 88.07969733 94.89900869 86.25 102 C84.13332316 110.30490479 82.21491369 118.578209 80.60546875 126.99609375 C78.39022228 137.98657463 78.39022228 137.98657463 75.1875 142.625 C72.17544152 144.5182939 70.48957086 144.65429454 67 144 C63.65968259 140.52539053 62.25054053 137.42409613 61.03515625 132.80078125 C60.71240723 131.59945557 60.3896582 130.39812988 60.05712891 129.16040039 C59.72890137 127.89059326 59.40067383 126.62078613 59.0625 125.3125 C58.71399454 124.00153436 58.36421504 122.69090676 58.01318359 121.38061523 C57.31936883 118.78575042 56.63229723 116.18941628 55.94873047 113.59179688 C54.71076149 108.90497246 53.42549115 104.23228529 52.125 99.5625 C51.83894897 98.51993042 51.83894897 98.51993042 51.54711914 97.45629883 C50.73733164 94.5247141 49.87612303 91.64759138 48.8671875 88.77734375 C48 86 48 86 48 82 C46.77651855 82.52170776 46.77651855 82.52170776 45.52832031 83.05395508 C42.44480161 84.36377412 39.35809712 85.66547646 36.26904297 86.9621582 C34.94317961 87.5205599 33.61858691 88.0819902 32.29541016 88.64672852 C24.83490626 91.82833082 17.58744745 94.63340228 9.57714844 96.1706543 C6.29652458 97.22638367 4.42736048 98.55428023 2 101 C0.90665761 103.72920064 0.90665761 103.72920064 0.48828125 106.7890625 C0.28783203 107.89507812 0.08738281 109.00109375 -0.11914062 110.140625 C-0.30669922 111.29046875 -0.49425781 112.4403125 -0.6875 113.625 C-1.0806321 115.91000082 -1.48005826 118.1939305 -1.88671875 120.4765625 C-2.05389404 121.48799316 -2.22106934 122.49942383 -2.39331055 123.54150391 C-3 126 -3 126 -5 128 C-7.125 127.625 -7.125 127.625 -9 127 C-9.1451001 126.37432129 -9.2902002 125.74864258 -9.43969727 125.10400391 C-10.11589264 122.26909367 -10.83840896 119.44803848 -11.5625 116.625 C-11.79001953 115.64015625 -12.01753906 114.6553125 -12.25195312 113.640625 C-13.37550334 108.51952829 -13.37550334 108.51952829 -16.77685547 104.88964844 C-18.90986824 104.21890914 -18.90986824 104.21890914 -22 104 C-22 101 -22 98 -22 95 C-23.28872133 93.1507399 -23.28872133 93.1507399 -25.09765625 91.46875 C-25.73380859 90.82292969 -26.36996094 90.17710937 -27.02539062 89.51171875 C-28.38544256 88.16861856 -29.74743013 86.82747566 -31.11132812 85.48828125 C-31.74619141 84.84246094 -32.38105469 84.19664062 -33.03515625 83.53125 C-33.6269165 82.94923828 -34.21867676 82.36722656 -34.82836914 81.76757812 C-36 80 -36 80 -35.68530273 77.77929688 C-35.45915283 77.19212891 -35.23300293 76.60496094 -35 76 C-30.18325927 76.29490249 -26.08942602 77.23757469 -21.52880859 78.86254883 C-12.39553981 82.6562184 -12.39553981 82.6562184 -3 82 C0.08611084 79.61486419 2.84144963 76.97883505 5.6015625 74.234375 C9.27911541 70.62512895 13.30168043 67.56272928 17.4375 64.5 C18.11176025 63.99629883 18.78602051 63.49259766 19.48071289 62.97363281 C22.89030843 60.45533172 26.312278 58.10320946 30 56 C29.4234559 52.59986814 28.39002339 51.07329515 25.875 48.75 C23.3622975 46.41098661 21.08779725 43.96609374 18.85546875 41.36328125 C14.61965959 36.47936398 10.04270458 31.97035258 5.4375 27.4375 C-9.45871134 12.77422394 -9.45871134 12.77422394 -11.125 7.3125 C-11 4 -11 4 -9.5 1.5625 C-6.07645486 -0.57721571 -4.02585989 -0.27901254 0 0 Z " fill="#02375D" transform="translate(288,173)"/>
<path d="M0 0 C12.03501934 8.84552658 19.60454647 20.84728035 22.2109375 35.625 C22.29805828 37.23262488 22.34149512 38.84314279 22.34375 40.453125 C22.34503906 41.33484375 22.34632812 42.2165625 22.34765625 43.125 C22.34378906 44.0325 22.33992188 44.94 22.3359375 45.875 C22.33980469 46.79796875 22.34367187 47.7209375 22.34765625 48.671875 C22.34636719 49.5484375 22.34507813 50.425 22.34375 51.328125 C22.34262207 52.12895508 22.34149414 52.92978516 22.34033203 53.75488281 C22.2109375 55.625 22.2109375 55.625 21.2109375 56.625 C18.80843218 56.74989698 16.43320965 56.8110079 14.02905273 56.83032227 C13.27788177 56.84022186 12.52671082 56.85012146 11.7527771 56.86032104 C9.25839438 56.89202546 6.76399259 56.91672859 4.26953125 56.94140625 C2.54459627 56.96196807 0.81966642 56.98296433 -0.90525818 57.00437927 C-5.45413064 57.05967971 -10.00304917 57.10905369 -14.55200195 57.15722656 C-19.19030883 57.20738354 -23.82854848 57.26309983 -28.46679688 57.31835938 C-37.57416138 57.42603839 -46.68158415 57.52746157 -55.7890625 57.625 C-55.18835937 58.72199219 -54.58765625 59.81898438 -53.96875 60.94921875 C-53.63085449 61.56627686 -53.29295898 62.18333496 -52.94482422 62.8190918 C-49.79959533 67.73359498 -45.35549113 70.17288818 -39.7890625 71.625 C-28.91482251 72.79847044 -19.11980521 72.72231702 -9.7890625 66.625 C-8.1390625 65.965 -6.4890625 65.305 -4.7890625 64.625 C1.4809375 70.895 7.7509375 77.165 14.2109375 83.625 C9.74106113 92.56475274 1.26656032 96.19499314 -7.7890625 99.625 C-26.99587854 105.85612987 -47.93331536 103.8353238 -66.1015625 95.5 C-79.18718368 88.47336382 -88.71073872 77.83750508 -93.7265625 63.75 C-98.18187126 47.89938229 -96.2503097 31.96792884 -88.578125 17.51171875 C-80.23204073 4.045002 -66.51136879 -5.33341114 -51.12744141 -8.97583008 C-33.38684423 -12.00421558 -15.26603111 -9.69971652 0 0 Z " fill="#020202" transform="translate(1402.7890625,291.375)"/>
<path d="M0 0 C37.41676978 -2.85698758 37.41676978 -2.85698758 46.23193359 1.65380859 C50.61392289 5.59732491 53.02094959 10.27289837 55.06152344 15.74267578 C56.04258789 18.10243696 57.2328372 19.92112251 58.7578125 21.96484375 C61 25 61 25 61 27 C64.85329539 23.35276319 67.92357854 19.54411633 70.9375 15.1875 C72.15478847 13.44602032 73.37379108 11.70751841 74.61750793 9.98478699 C76.02451134 8.01533529 76.02451134 8.01533529 77.23796082 5.91926575 C80.74875926 0.42177015 80.74875926 0.42177015 84.0789032 -0.70075989 C86.53531456 -0.92483117 88.8723364 -0.90177699 91.3359375 -0.78125 C92.21528961 -0.76993042 93.09464172 -0.75861084 94.00064087 -0.74694824 C96.79436236 -0.70235453 99.5828455 -0.60204047 102.375 -0.5 C104.27466515 -0.45985027 106.17441122 -0.42335209 108.07421875 -0.390625 C112.71814739 -0.30267671 117.35818749 -0.16476058 122 0 C120.53272637 3.86819412 118.96717978 6.4890068 116.25 9.625 C111.38870354 15.42116117 106.91834041 21.45635208 102.46948242 27.57299805 C99.43937566 31.72743498 96.37037447 35.83346821 93.17578125 39.86328125 C92.56895508 40.63333496 91.96212891 41.40338867 91.33691406 42.19677734 C90.1762018 43.66251994 89.00532358 45.12028357 87.82324219 46.56884766 C87.30536133 47.22546387 86.78748047 47.88208008 86.25390625 48.55859375 C85.79314697 49.12892334 85.3323877 49.69925293 84.85766602 50.28686523 C83.82013485 51.97836573 83.82013485 51.97836573 84.19677734 53.97705078 C85.08562454 56.21564891 86.15537032 57.87916368 87.59765625 59.80859375 C88.14405762 60.54529297 88.69045898 61.28199219 89.25341797 62.04101562 C90.14891357 63.22727539 90.14891357 63.22727539 91.0625 64.4375 C91.68012207 65.26572266 92.29774414 66.09394531 92.93408203 66.94726562 C98.37965196 74.22981326 103.90315702 81.45368683 109.42211914 88.68066406 C112.9726624 93.33167836 116.51972153 97.98359005 120 102.6875 C120.598125 103.49574219 121.19625 104.30398438 121.8125 105.13671875 C123 107 123 107 123 109 C117.07825075 109.37363007 111.16347083 109.64413699 105.23266602 109.82397461 C103.22103354 109.89896933 101.21020699 110.00102285 99.20141602 110.1315918 C83.0061872 111.15711535 83.0061872 111.15711535 78.03652954 107.59109497 C74.6609324 104.13684034 72.2789985 100.21339386 70.05293274 95.95204163 C68.36753047 92.82745895 66.33312953 89.9795854 64.3125 87.0625 C63.20465106 85.37741514 62.09893508 83.69091158 61 82 C59.90892966 83.30607537 58.8280288 84.62063962 57.75 85.9375 C57.02844727 86.8044751 56.30689453 87.6714502 55.56347656 88.56469727 C53.62983612 91.01720577 52.133695 93.51368412 50.67578125 96.2734375 C44.30212258 107.7385837 44.30212258 107.7385837 38.64416504 109.89993286 C32.19391199 111.11053098 25.75084306 110.55553532 19.25 110.0625 C17.28157882 109.97707856 15.31279905 109.89953744 13.34375 109.83007812 C8.55353378 109.64409055 3.78077385 109.35190215 -1 109 C2.30862198 103.95550176 5.65487929 99.00423369 9.375 94.25 C10.23494686 93.14367343 11.09427444 92.03686535 11.953125 90.9296875 C12.42814453 90.31834961 12.90316406 89.70701172 13.39257812 89.07714844 C22.08853818 77.84002388 30.73244121 66.5571052 39 55 C34.89482285 48.68998182 30.55050066 42.62002774 26 36.625 C20.13167265 28.85168606 14.32185174 21.03887938 8.56835938 13.18017578 C6.30258791 10.09201818 4.04002477 7.04864348 1.60546875 4.08984375 C0 2 0 2 0 0 Z " fill="#020202" transform="translate(757,283)"/>
<path d="M0 0 C12.54 0 25.08 0 38 0 C38 49.17 38 98.34 38 149 C25.46 149 12.92 149 0 149 C0 99.83 0 50.66 0 0 Z " fill="#000000" transform="translate(1031,243)"/>
<path d="M0 0 C13.2 0 26.4 0 40 0 C40 46.2 40 92.4 40 140 C26.8 140 13.6 140 0 140 C0 93.8 0 47.6 0 0 Z " fill="#010101" transform="translate(1601,252)"/>
<path d="M0 0 C0 0.99 0 1.98 0 3 C-2.08564426 4.76572243 -4.13868081 6.31990489 -6.375 7.875 C-7.78006095 8.87484117 -9.18500438 9.87484752 -10.58984375 10.875 C-11.32444824 11.39320313 -12.05905273 11.91140625 -12.81591797 12.4453125 C-14.85627458 13.89769244 -16.87115112 15.37800305 -18.87890625 16.875 C-39.95682582 32.51520972 -62.24106875 46.93580853 -85 60 C-85.7321875 60.42249023 -86.464375 60.84498047 -87.21875 61.28027344 C-106.06836584 72.10718746 -125.32989855 82.1254021 -146 89 C-146.70866211 89.2386377 -147.41732422 89.47727539 -148.14746094 89.72314453 C-157.43632347 92.72048773 -166.5778872 93.4081901 -176.3125 93.5625 C-177.38588623 93.58957031 -178.45927246 93.61664063 -179.56518555 93.64453125 C-189.99285396 93.59318319 -199.72862282 90.3783573 -207.30859375 82.98828125 C-213.38121983 75.84979008 -214.90557098 68.9924675 -214.53125 59.671875 C-212.59350465 46.27863505 -201.19587229 35.97008832 -190.86743164 28.13867188 C-176.00567974 17.27834757 -159.85660873 8.35372793 -143 1 C-142.505 1.99 -142.505 1.99 -142 3 C-143.02738281 3.61746094 -144.05476563 4.23492187 -145.11328125 4.87109375 C-153.6449142 10.06129949 -161.4338249 15.46211379 -169 22 C-169.66515625 22.50917969 -170.3303125 23.01835937 -171.015625 23.54296875 C-176.65750882 27.92156119 -179.83977895 33.67955791 -183 40 C-183.39567146 44.11498317 -183.26788111 46.47454089 -181.375 50.1875 C-175.68528569 56.92531958 -169.37227557 58.42613653 -160.91796875 59.1875 C-138.53707695 59.87219267 -116.31629088 52.25279373 -95.84570312 44.12890625 C-93.23083793 43.09157469 -90.60935852 42.07388454 -87.984375 41.0625 C-57.93992258 29.38463802 -28.15263025 15.74638641 0 0 Z " fill="#023861" transform="translate(262,277)"/>
<path d="M0 0 C0 11.22 0 22.44 0 34 C-8.5 34.25 -8.5 34.25 -11.12695312 34.29785156 C-18.34095318 34.60851793 -23.6275912 36.6803114 -28.8125 41.75 C-34.18897627 49.7379076 -34.46190871 56.85289856 -34.51171875 66.25 C-34.52966995 67.50385498 -34.54762115 68.75770996 -34.56611633 70.04956055 C-34.61091081 73.35715861 -34.64331531 76.66456386 -34.66955566 79.97235107 C-34.69951808 83.35800255 -34.7458363 86.74342928 -34.79101562 90.12890625 C-34.87822312 96.75261982 -34.93842892 103.37580057 -35 110 C-47.54 110 -60.08 110 -73 110 C-73 74.03 -73 38.06 -73 1 C-61.12 1 -49.24 1 -37 1 C-36.505 6.94 -36.505 6.94 -36 13 C-34.2675 11.39125 -34.2675 11.39125 -32.5 9.75 C-22.50091726 1.03601064 -13.36112874 0 0 0 Z " fill="#010101" transform="translate(1300,282)"/>
<path d="M0 0 C0.71269043 -0.00644531 1.42538086 -0.01289063 2.15966797 -0.01953125 C10.58487621 0.18400456 16.23491627 3.76119374 22.2890625 9.37109375 C25.69180614 12.95120048 28.3125 16.39520056 28.3125 21.5 C28.993125 21.335 29.67375 21.17 30.375 21 C36.9818563 19.87542871 42.39567203 20.37342354 48.3125 23.5 C51.77241471 26.42170575 54.32521859 29.42084342 56.3125 33.5 C56.3125 34.82 56.3125 36.14 56.3125 37.5 C16.7125 37.5 -22.8875 37.5 -63.6875 37.5 C-63.6875 29.08977256 -62.66808089 23.81821945 -56.9375 17.6015625 C-49.54809267 11.0721293 -43.42745417 10.93599375 -33.6875 11.5 C-30.88438373 11.97124853 -28.40074069 12.63176298 -25.6875 13.5 C-25.10355469 12.72076172 -25.10355469 12.72076172 -24.5078125 11.92578125 C-17.62697211 3.34851246 -10.89437922 0.09409958 0 0 Z " fill="#FCFDFD" transform="translate(450.6875,298.5)"/>
<path d="M0 0 C0.7520874 0.00902344 1.5041748 0.01804688 2.27905273 0.02734375 C11.81234072 0.32600435 16.50473642 3.91708712 23.09375 10.6328125 C24.5625 12.4375 24.5625 12.4375 24.5625 14.4375 C25.32820313 14.11265625 25.32820313 14.11265625 26.109375 13.78125 C33.70639865 10.87175158 42.19183979 9.58728479 49.875 12.9375 C56.27936061 16.7267467 60.66303057 22.43658531 63.15234375 29.3828125 C63.5625 31.4375 63.5625 31.4375 63.5625 37.4375 C23.9625 37.4375 -15.6375 37.4375 -56.4375 37.4375 C-55.40894619 31.26617716 -54.10999483 27.93182851 -49.5625 23.6875 C-44.60540618 20.77156246 -40.14575231 20.02976769 -34.4375 20.4375 C-31 21.4375 -31 21.4375 -28.4375 22.4375 C-28.39625 21.6125 -28.355 20.7875 -28.3125 19.9375 C-26.53633775 12.83285098 -21.2741638 7.60654557 -15.4375 3.4375 C-10.12976655 0.73776398 -5.92649961 -0.08482522 0 0 Z " fill="#FCFDFC" transform="translate(202.4375,191.5625)"/>
<path d="M0 0 C5.91307681 3.39901354 8.98835736 8.47641126 10.828125 14.9375 C12.3397071 22.62137566 11.60001344 30.19065101 8.296875 37.3203125 C4.77568822 42.55763324 1.1911073 45.90936278 -4.703125 48.3203125 C-11.07630279 49.20752983 -17.6571238 49.51196171 -23.328125 46.1328125 C-28.88417305 41.90358189 -32.95354634 36.30791663 -34.00854492 29.28808594 C-34.14011919 27.14380127 -34.17065913 25.03085376 -34.140625 22.8828125 C-34.13377686 22.13290039 -34.12692871 21.38298828 -34.11987305 20.61035156 C-33.90886483 13.3617848 -32.11172304 9.26415455 -27.453125 3.5703125 C-18.65114361 -3.63130863 -10.43959751 -4.63621877 0 0 Z " fill="#FCFCFC" transform="translate(1159.703125,314.6796875)"/>
<path d="M0 0 C5.1572552 4.17337633 7.76871451 9.55627258 9 16 C9.96980758 25.32092837 8.3832642 34.0147755 2.48828125 41.4921875 C-2.15643949 46.19786258 -7.00217481 47.26686044 -13.5 47.5 C-20.26136415 47.24986861 -24.97592779 46.11878588 -29.74609375 41.19921875 C-35.6334353 33.92828134 -36.53121274 26.69898023 -36.375 17.51171875 C-35.62885231 10.52435652 -32.69515829 5.24485744 -27.5625 0.5 C-18.87148724 -6.13064336 -9.1357767 -5.17234929 0 0 Z " fill="#FDFDFD" transform="translate(966,316)"/>
<path d="M0 0 C2.54274885 1.27137443 2.65885609 2.15073798 3.69580078 4.75366211 C4.01598175 5.54796127 4.33616272 6.34226044 4.66604614 7.16062927 C5.00570404 8.02414505 5.34536194 8.88766083 5.6953125 9.77734375 C6.04761932 10.65902725 6.39992615 11.54071075 6.76290894 12.44911194 C7.50747703 14.31658256 8.24868671 16.18539513 8.98681641 18.05541992 C10.12003238 20.92492112 11.26418774 23.78986807 12.41015625 26.65429688 C13.13085945 28.46588693 13.85093282 30.27772772 14.5703125 32.08984375 C15.08587204 33.38208107 15.08587204 33.38208107 15.61184692 34.70042419 C15.92572357 35.49787552 16.23960022 36.29532684 16.56298828 37.11694336 C16.98029709 38.17165077 16.98029709 38.17165077 17.40603638 39.24766541 C18 41 18 41 18 43 C6.45 43 -5.1 43 -17 43 C-11.49417487 28.59434795 -5.97929531 14.2156756 0 0 Z " fill="#FCFCFC" transform="translate(1508,292)"/>
<path d="M0 0 C4.34784492 3.20023779 7.7095914 7.36879967 9.8203125 12.33984375 C9.8203125 13.32984375 9.8203125 14.31984375 9.8203125 15.33984375 C-4.6996875 15.33984375 -19.2196875 15.33984375 -34.1796875 15.33984375 C-29.25127587 3.01881467 -29.25127587 3.01881467 -23.1796875 -0.66015625 C-15.61029584 -3.80216788 -7.21503088 -4.10409651 0 0 Z " fill="#FDFDFD" transform="translate(1379.1796875,311.66015625)"/>
<path d="M0 0 C3.375 1.0625 3.375 1.0625 5.375 2.625 C6.93067502 6.41695787 6.2134148 9.06390632 5.375 13.0625 C3.375 15.0625 3.375 15.0625 -0.5 15.4375 C-3.52245069 15.34957416 -4.5062956 15.13965786 -7.125 13.4375 C-9.10698314 10.29936002 -9.29564058 8.71376535 -8.625 5.0625 C-5.92665364 1.21940065 -4.75860157 0.08204485 0 0 Z " fill="#F4FBFD" transform="translate(519.625,240.9375)"/>
<path d="M0 0 C1.9375 1.1875 1.9375 1.1875 3 3 C3.70541917 7.0561602 3.32120577 8.54252512 0.9375 11.9375 C-2 14 -2 14 -5.6875 13.9375 C-9 13 -9 13 -11 11 C-11.49614003 7.95970005 -11.43990834 5.04594763 -11 2 C-7.99960012 -2.08054384 -4.54784195 -1.1576325 0 0 Z " fill="#F5FBFD" transform="translate(249,99)"/>
<path d="M0 0 C2 1.0625 2 1.0625 3 3 C3.49573337 6.89504791 3.58016848 9.09493717 1.4375 12.4375 C-1.90506283 14.58016848 -4.10495209 14.49573337 -8 14 C-10.19443916 12.38837956 -10.90775165 11.50736594 -11.3984375 8.80859375 C-11.39070313 8.02613281 -11.38296875 7.24367188 -11.375 6.4375 C-11.38273437 5.65246094 -11.39046875 4.86742187 -11.3984375 4.05859375 C-11.26695312 3.37925781 -11.13546875 2.69992187 -11 2 C-7.18410122 -0.54393252 -4.4700353 -0.57737956 0 0 Z " fill="#F5F9F9" transform="translate(428,434)"/>
<path d="M0 0 C1 1 1 1 1.1875 3.9375 C1 7 1 7 -1 9 C-4.625 8.625 -4.625 8.625 -8 8 C-9.32278481 2.58860759 -9.32278481 2.58860759 -7.9375 0.0625 C-5.06369928 -1.51345523 -3.08587291 -0.80501033 0 0 Z " fill="#EFF9FD" transform="translate(269,396)"/>
<path d="M0 0 C3 0.25 3 0.25 5 2.25 C5.36796448 5.12012296 5.37509409 6.65774618 3.8125 9.125 C2 10.25 2 10.25 -0.5625 10.0625 C-3 9.25 -3 9.25 -5 7.25 C-5.25 4.75 -5.25 4.75 -5 2.25 C-3 0.25 -3 0.25 0 0 Z " fill="#F1FAFD" transform="translate(479,153.75)"/>
<path d="M0 0 C3.375 -0.125 3.375 -0.125 7 0 C7.66 0.66 8.32 1.32 9 2 C8.43181818 7.56818182 8.43181818 7.56818182 7 9 C4.66702567 9.04092937 2.33294775 9.04241723 0 9 C-1.125 2.25 -1.125 2.25 0 0 Z " fill="#EFF5F5" transform="translate(330,516)"/>
<path d="M0 0 C2.9375 0.1875 2.9375 0.1875 3.9375 1.1875 C4.0625 4.6875 4.0625 4.6875 3.9375 8.1875 C2.9375 9.1875 2.9375 9.1875 0 9.375 C-3.0625 9.1875 -3.0625 9.1875 -5.0625 7.1875 C-5.3125 4.6875 -5.3125 4.6875 -5.0625 2.1875 C-3.0625 0.1875 -3.0625 0.1875 0 0 Z " fill="#F7FCFD" transform="translate(165.0625,262.8125)"/>
<path d="M0 0 C0.33 0.66 0.66 1.32 1 2 C-2.63 3.98 -6.26 5.96 -10 8 C-9 4 -9 4 -6.93359375 2.734375 C-6.10988281 2.40953125 -5.28617187 2.0846875 -4.4375 1.75 C-3.61121094 1.41484375 -2.78492187 1.0796875 -1.93359375 0.734375 C-1.29550781 0.49203125 -0.65742187 0.2496875 0 0 Z " fill="#195178" transform="translate(119,278)"/>
<path d="M0 0 C0 0.99 0 1.98 0 3 C-2.53184488 5.35723489 -3.47190093 6 -7 6 C-7 5.34 -7 4.68 -7 4 C-4.69 2.68 -2.38 1.36 0 0 Z " fill="#2B4F57" transform="translate(262,277)"/>
</svg>
